<?xml version="1.0" standalone="no"?>
<!DOCTYPE svg PUBLIC "-//W3C//DTD SVG 20010904//EN"
 "http://www.w3.org/TR/2001/REC-SVG-20010904/DTD/svg10.dtd">
<svg version="1.0" xmlns="http://www.w3.org/2000/svg"
 viewBox="0 0 770.000000 480.000000"
 preserveAspectRatio="xMidYMid meet">
<title>I can't believe it's not better!</title>
<g transform="translate(0.000000,480.000000) scale(0.100000,-0.100000)"
fill="currentColor" stroke="none">
<path d="M5693 4637 c-35 -24 -53 -55 -53 -90 0 -33 19 -47 62 -47 29 0 45 7
73 35 80 80 11 165 -82 102z"/>
<path d="M5411 4611 c-21 -6 -25 -13 -27 -56 -3 -49 -73 -341 -129 -538 -15
-53 -26 -99 -24 -101 2 -2 38 0 79 3 l75 6 3 35 c2 36 31 170 57 270 8 30 28
112 45 182 17 70 37 145 45 167 l14 41 -57 -1 c-31 -1 -68 -4 -81 -8z"/>
<path d="M7025 4602 c-96 -11 -216 -110 -268 -221 -39 -83 -44 -174 -11 -218
56 -76 181 -84 309 -22 57 29 73 42 85 74 13 34 6 43 -17 22 -31 -27 -113 -57
-156 -57 -53 1 -76 18 -83 62 -6 32 -3 36 27 50 39 18 120 54 164 73 130 55
125 51 125 99 0 25 -4 56 -9 69 -19 49 -89 78 -166 69z m35 -77 c25 -30 -8
-124 -44 -126 -6 0 -38 -13 -71 -28 -70 -34 -76 -28 -50 52 21 66 74 117 120
117 18 0 38 -7 45 -15z"/>
<path d="M6718 4563 c-32 -4 -38 -8 -38 -28 0 -26 -170 -368 -179 -359 -3 3
-10 83 -16 177 l-10 172 -80 -4 c-44 -2 -81 -5 -83 -6 -2 -2 1 -12 6 -22 6
-10 22 -110 37 -223 15 -113 31 -209 35 -214 14 -14 111 4 117 23 4 9 14 27
23 41 9 14 32 54 50 90 19 36 41 76 50 90 10 14 32 54 51 90 19 36 46 83 60
105 33 51 42 75 26 73 -7 -1 -29 -3 -49 -5z"/>
<path d="M4385 4490 c-16 -4 -52 -8 -80 -9 -89 -2 -95 -6 -95 -65 0 -31 -28
-163 -71 -331 -39 -154 -71 -287 -72 -295 -3 -22 56 -18 296 21 133 22 242 91
289 182 23 47 27 107 8 142 -14 26 -44 40 -103 51 -30 5 -35 9 -26 20 6 8 19
14 28 14 23 0 112 70 138 109 40 59 28 128 -27 156 -31 16 -227 20 -285 5z
m147 -84 c30 -19 24 -79 -13 -121 -36 -41 -73 -59 -143 -69 -48 -7 -49 -7 -42
16 3 13 14 55 23 93 9 39 20 75 25 82 18 23 112 23 150 -1z m-91 -277 c50 -16
74 -61 58 -110 -15 -45 -63 -94 -113 -117 -41 -19 -136 -35 -136 -23 1 3 13
58 29 121 27 113 28 115 62 127 44 15 54 15 100 2z"/>
<path d="M6065 4488 c-113 -37 -195 -109 -245 -212 -55 -116 -45 -213 28 -263
42 -28 181 -24 247 7 79 37 102 57 107 90 3 16 1 30 -4 30 -4 0 -8 -4 -8 -8 0
-5 -23 -19 -51 -32 -68 -32 -161 -34 -183 -5 -25 32 -20 74 9 85 14 5 46 19
73 31 26 12 61 27 77 34 129 56 136 60 142 83 27 111 -77 199 -192 160z m49
-64 c11 -4 16 -19 16 -46 0 -32 -6 -46 -31 -69 -17 -16 -35 -29 -40 -29 -8 0
-84 -33 -113 -48 -14 -8 3 76 24 118 30 59 95 93 144 74z"/>
<path d="M5685 4441 c-70 -7 -88 -16 -80 -40 5 -17 -70 -338 -99 -418 -18 -50
-21 -49 84 -31 57 10 69 15 65 29 -7 22 74 363 106 447 6 15 5 22 -4 20 -6 0
-39 -4 -72 -7z"/>
<path d="M3495 4363 c-60 -14 -90 -96 -40 -109 35 -9 31 -36 -11 -78 -70 -70
-14 -54 63 17 64 59 89 118 65 153 -9 14 -51 23 -77 17z"/>
<path d="M4990 4354 c-152 -55 -267 -227 -245 -370 13 -92 102 -138 218 -114
82 18 176 66 188 97 15 41 10 44 -33 20 -102 -57 -194 -55 -218 3 -14 34 -8
58 17 66 19 7 49 19 128 54 28 12 66 29 85 37 71 31 78 36 84 65 8 42 -9 100
-38 127 -32 30 -123 38 -186 15z m84 -60 c20 -19 20 -35 2 -78 -11 -25 -28
-40 -77 -63 -35 -17 -75 -34 -88 -38 -22 -7 -23 -5 -17 21 15 64 61 138 96
156 43 22 64 23 84 2z"/>
<path d="M3790 4348 c-14 -6 -34 -14 -45 -18 -72 -27 -72 -27 -81 -77 -8 -44
-11 -48 -41 -51 -36 -4 -47 -15 -57 -56 -7 -28 -6 -28 29 -22 21 4 35 3 35 -3
0 -6 -18 -81 -40 -167 -22 -86 -40 -165 -40 -175 0 -10 10 -27 22 -39 37 -34
182 -24 210 15 19 26 8 44 -28 47 -60 5 -63 20 -25 169 46 186 41 176 103 186
50 8 53 10 56 39 l3 31 -52 -5 c-47 -4 -51 -3 -45 15 17 54 32 123 27 122 -3
0 -17 -5 -31 -11z"/>
<path d="M2270 4244 c-151 -19 -338 -161 -414 -314 -114 -231 -38 -409 175
-410 64 0 99 10 185 51 52 25 63 35 68 61 8 39 1 46 -21 26 -32 -28 -120 -51
-171 -44 -111 14 -143 148 -77 323 39 104 87 163 163 202 55 28 158 31 196 6
21 -14 27 -15 30 -4 10 29 25 93 23 95 -5 6 -125 11 -157 8z"/>
<path d="M1484 4146 l-50 -11 9 -32 c8 -25 -1 -74 -42 -245 -28 -117 -65 -260
-80 -316 -29 -103 -29 -104 -8 -98 12 4 57 9 100 13 l78 6 -6 42 c-5 33 8 103
64 326 39 156 74 294 77 307 6 21 4 22 -42 21 -27 -1 -72 -6 -100 -13z"/>
<path d="M3210 4148 c-60 -25 -77 -33 -102 -50 -34 -23 -38 -23 -35 5 1 12 -3
22 -10 21 -7 -1 -40 -2 -73 -2 l-61 -2 6 -33 c6 -33 -54 -306 -90 -408 -20
-57 -20 -57 28 -48 23 4 59 8 80 9 36 0 37 1 37 39 0 45 66 319 82 338 15 19
68 43 94 43 31 0 41 -38 26 -99 -52 -215 -66 -268 -74 -283 -11 -22 7 -23 98
-6 60 11 63 12 58 37 -3 14 13 100 35 190 23 91 41 174 41 185 -1 58 -75 92
-140 64z"/>
<path d="M2518 4067 c-42 -9 -49 -15 -59 -44 -6 -19 -9 -37 -6 -39 3 -3 26 2
51 10 85 29 146 18 160 -29 8 -29 -3 -41 -59 -60 -175 -59 -274 -147 -278
-247 -1 -28 5 -44 21 -61 31 -30 127 -29 196 3 38 18 50 20 56 10 6 -10 23
-11 65 -6 32 3 62 9 66 12 5 3 9 22 9 42 0 21 14 93 30 160 36 147 38 192 10
217 -47 43 -154 56 -262 32z m122 -229 c0 -25 -33 -144 -44 -157 -20 -25 -73
-42 -100 -32 -87 34 16 189 132 200 6 0 12 -4 12 -11z"/>
<path d="M5585 3711 c-74 -27 -95 -40 -95 -60 0 -10 -5 -32 -11 -48 -8 -25
-17 -32 -50 -37 -24 -4 -39 -12 -39 -20 0 -8 -3 -21 -6 -30 -5 -13 1 -16 30
-16 20 0 36 -3 36 -7 0 -5 -19 -84 -42 -176 -45 -181 -45 -190 6 -215 42 -21
162 -7 181 21 27 39 20 57 -25 57 -56 0 -58 21 -20 171 17 68 34 134 37 146 4
17 15 23 52 28 59 8 66 13 75 49 l7 29 -54 -6 -55 -5 18 69 c10 38 15 69 12
69 -4 -1 -30 -9 -57 -19z"/>
<path d="M4818 3703 l-48 -4 -1 -52 c0 -59 -69 -347 -83 -348 -8 0 -38 63 -93
201 -14 36 -29 70 -33 75 -4 6 -13 27 -19 48 -12 36 -14 37 -60 37 -26 0 -73
-5 -105 -11 -51 -11 -56 -14 -49 -33 4 -12 7 -37 6 -56 -2 -30 -113 -484 -142
-579 -6 -19 -9 -36 -8 -38 2 -1 31 2 65 8 57 10 60 12 52 34 -6 16 5 78 40
216 26 107 51 211 54 232 8 44 20 41 36 -11 7 -20 18 -50 25 -67 14 -33 42
-107 86 -230 47 -130 43 -125 115 -125 58 0 64 2 68 23 23 112 131 555 162
665 4 15 2 21 -7 20 -8 -1 -35 -3 -61 -5z"/>
<path d="M5140 3543 c-124 -18 -218 -90 -281 -214 -57 -112 -48 -220 23 -270
45 -32 155 -30 229 4 174 81 287 326 196 427 -37 42 -104 63 -167 53z m40 -78
c28 -33 -9 -231 -56 -302 -19 -31 -72 -63 -102 -63 -37 0 -52 23 -52 78 0 51
39 188 67 232 38 62 113 91 143 55z"/>
<path d="M3581 3519 c-47 -44 -47 -99 0 -99 31 0 22 -29 -21 -73 -22 -22 -39
-42 -36 -44 9 -10 70 31 112 75 53 55 71 105 49 139 -20 30 -73 31 -104 2z"/>
<path d="M3045 3489 c-22 -4 -57 -8 -79 -8 -33 -1 -37 -3 -30 -18 16 -34 4
-101 -68 -390 -59 -233 -71 -293 -59 -293 8 0 52 5 98 12 l82 12 -6 41 c-4 30
12 111 66 325 39 157 73 295 77 308 7 25 -7 27 -81 11z"/>
<path d="M7415 3459 c-86 -41 -134 -96 -220 -249 -20 -36 -47 -87 -59 -115
-13 -27 -40 -86 -61 -130 -119 -258 -226 -592 -269 -846 -31 -179 -23 -261 20
-234 22 14 61 85 74 137 13 50 65 190 110 298 17 41 38 93 48 115 18 43 90
185 142 279 55 99 205 324 252 379 15 18 28 35 28 39 0 4 6 13 13 20 7 7 43
53 80 101 58 77 67 94 67 130 0 23 -4 48 -9 55 -28 44 -146 56 -216 21z"/>
<path d="M3343 3446 c-18 -6 -35 -15 -39 -19 -4 -4 -15 -7 -25 -7 -13 0 -20
-13 -29 -52 -12 -57 -21 -68 -61 -68 -19 0 -28 -6 -33 -22 -11 -42 -8 -48 24
-41 39 7 39 2 -5 -173 -35 -138 -41 -189 -27 -210 17 -26 79 -36 144 -23 67
13 78 21 78 57 0 18 -6 22 -29 22 -27 0 -61 22 -61 38 0 12 58 240 70 277 11
33 14 35 53 35 53 0 65 8 73 49 l7 32 -52 -7 -52 -7 7 39 c4 22 11 49 15 62 5
13 9 25 9 28 0 7 -33 2 -67 -10z"/>
<path d="M3880 3388 c-138 -29 -240 -119 -240 -212 0 -27 7 -39 29 -55 16 -12
36 -21 44 -21 29 0 116 -43 120 -59 10 -46 -47 -89 -131 -99 -39 -4 -57 0
-114 29 -13 6 -19 1 -27 -23 -19 -54 -15 -68 22 -70 197 -11 320 38 377 149
41 81 11 133 -98 168 -89 29 -103 58 -49 99 35 27 111 38 154 23 19 -7 25 -4
33 18 20 53 14 65 -32 64 -24 -1 -63 -5 -88 -11z"/>
<path d="M4914 2806 c-53 -14 -80 -38 -95 -85 -7 -20 -22 -52 -34 -71 -13 -20
-37 -64 -54 -98 -35 -69 -53 -81 -151 -101 -30 -7 -73 -16 -95 -21 -61 -14
-105 -20 -105 -15 0 2 25 51 55 108 30 57 55 109 55 116 0 29 -30 44 -78 37
-83 -10 -116 -17 -142 -29 -29 -13 -90 -67 -90 -80 0 -5 -13 -37 -29 -70 -15
-34 -32 -73 -36 -87 -16 -49 -35 -67 -78 -74 -23 -3 -67 -10 -97 -16 -216 -39
-305 -50 -465 -56 -167 -7 -215 4 -237 51 -13 30 -44 33 -53 5 -8 -26 9 -85
36 -125 25 -35 96 -85 144 -99 81 -24 259 -18 410 14 22 5 67 14 100 20 33 7
71 16 84 21 13 6 26 7 29 4 3 -3 -4 -33 -17 -68 -12 -34 -51 -147 -87 -252
l-64 -190 -141 -175 c-77 -96 -154 -193 -171 -215 -65 -82 -256 -263 -328
-312 -119 -79 -229 -112 -271 -80 -21 16 -35 44 -42 85 -14 71 37 291 65 283
7 -2 36 -4 64 -4 69 0 121 30 210 118 129 129 204 269 204 382 0 162 -141 192
-330 70 -147 -95 -324 -354 -405 -592 -31 -94 -43 -217 -26 -293 33 -153 176
-219 352 -161 199 66 417 238 684 543 l77 89 -7 -89 c-8 -108 7 -210 41 -278
36 -72 75 -100 169 -125 44 -12 115 3 115 25 0 25 -13 44 -29 44 -23 0 -56 37
-70 79 -35 107 13 369 134 721 20 58 40 114 45 125 5 11 33 81 62 155 76 197
72 191 154 213 38 10 85 23 104 27 19 5 53 13 75 19 22 6 45 11 52 11 14 0 14
-1 -34 -125 -144 -371 -237 -671 -264 -854 -6 -45 -9 -125 -7 -179 3 -81 9
-106 33 -154 33 -67 71 -105 137 -136 62 -29 165 -31 198 -4 30 24 20 62 -16
62 -65 0 -115 75 -122 186 -5 77 16 220 50 344 11 41 24 89 28 105 13 51 167
507 193 570 68 164 107 247 122 257 10 8 114 43 175 60 19 5 50 13 68 19 248
72 524 97 540 50 6 -17 54 -13 68 7 33 42 6 74 -77 92 -38 9 -108 11 -225 7
-182 -7 -276 -19 -419 -56 -43 -11 -53 -8 -38 11 6 7 32 55 58 106 34 67 45
99 41 117 -6 24 -9 25 -84 24 -42 -1 -96 -7 -118 -13z m-1636 -1154 c6 -41
-76 -189 -154 -278 -52 -59 -176 -110 -160 -66 20 52 131 218 201 301 26 31
87 72 100 68 5 -2 11 -13 13 -25z"/>
<path d="M1940 2764 c-183 -8 -499 -62 -670 -114 -14 -4 -45 -13 -70 -20 -51
-14 -95 -28 -125 -40 -11 -4 -36 -14 -55 -21 -85 -31 -242 -105 -315 -149 -27
-17 -57 -33 -65 -37 -23 -10 -127 -81 -200 -136 -76 -58 -216 -199 -225 -227
-4 -11 -10 -20 -14 -20 -4 0 -30 -43 -57 -96 -48 -94 -49 -97 -49 -187 0 -70
4 -101 19 -130 19 -39 102 -127 119 -127 5 0 21 -8 35 -18 36 -24 102 -45 132
-40 38 5 35 31 -9 79 -108 118 -101 236 26 427 125 189 343 355 623 475 19 8
56 24 82 36 26 11 52 21 58 21 6 0 18 4 28 10 15 8 149 53 237 79 32 10 182
46 250 61 22 5 72 13 110 19 39 6 100 15 136 21 90 14 336 13 401 -2 221 -50
284 -213 169 -439 -54 -107 -113 -181 -261 -329 -140 -141 -169 -167 -290
-263 -47 -38 -92 -74 -100 -81 -9 -6 -38 -27 -65 -46 -103 -71 -155 -121 -155
-149 0 -25 -15 -24 245 -21 208 1 279 -7 359 -45 154 -73 62 -336 -181 -516
-50 -38 -183 -109 -278 -150 -98 -41 -283 -89 -347 -89 -41 0 -48 -10 -21 -31
22 -18 223 -15 313 5 160 36 316 89 372 128 14 10 29 18 32 18 17 0 157 103
207 151 106 103 143 165 178 296 22 82 22 83 3 126 -29 66 -82 104 -197 142
-63 21 -197 45 -252 45 -51 0 -61 12 -25 31 34 17 169 106 203 133 14 12 41
32 59 46 97 71 274 245 342 335 139 185 175 374 98 525 -96 189 -318 301 -620
313 -63 2 -149 3 -190 1z"/>
<path d="M6529 2581 c-103 -51 -262 -204 -333 -321 -17 -29 -21 -32 -24 -15
-12 78 -40 95 -155 95 -98 -1 -123 -13 -107 -54 14 -38 13 -67 -6 -123 -25
-80 -75 -172 -156 -293 -93 -139 -130 -184 -267 -321 -117 -116 -225 -194
-314 -227 -113 -43 -162 -22 -180 76 -14 71 37 291 65 283 7 -2 36 -4 64 -4
69 0 121 30 210 118 129 129 204 269 204 382 0 162 -141 192 -330 70 -147 -95
-324 -354 -405 -592 -31 -94 -43 -217 -26 -293 33 -153 176 -219 352 -161 156
51 304 154 513 358 84 83 117 109 112 91 -15 -54 -23 -147 -15 -176 16 -57
110 -91 172 -61 34 16 36 20 107 232 34 99 73 207 88 240 97 219 221 403 294
439 41 21 55 20 63 -4 9 -28 58 -60 92 -60 53 0 126 58 162 128 23 44 28 130
11 162 -25 48 -125 64 -191 31z m-1131 -479 c6 -41 -76 -189 -154 -278 -52
-59 -176 -110 -160 -66 20 52 131 218 201 301 26 31 87 72 100 68 5 -2 11 -13
13 -25z"/>
<path d="M1822 2293 c2 -22 -37 -88 -184 -310 -104 -155 -188 -284 -188 -288
0 -3 -16 -27 -35 -55 -19 -27 -43 -64 -53 -82 -9 -18 -30 -52 -45 -75 -15 -24
-27 -45 -27 -48 0 -3 -8 -18 -19 -33 -133 -194 -296 -558 -336 -752 -50 -247
-4 -419 129 -474 45 -19 119 -28 136 -16 13 8 13 13 -2 37 -25 44 -31 94 -19
179 20 139 59 273 144 489 48 123 217 473 277 574 15 25 58 98 95 161 37 63
87 145 112 183 60 93 161 292 174 343 12 47 1 98 -29 131 -31 34 -80 63 -107
63 -23 0 -26 -4 -23 -27z"/>
<path d="M6723 1697 c-64 -44 -110 -145 -100 -220 6 -44 26 -70 66 -87 24 -9
36 -8 74 10 109 51 166 213 101 289 -21 26 -33 31 -67 30 -26 0 -54 -9 -74
-22z"/>
</g>
</svg>
