<svg width="50" height="38" viewBox="0 0 50 38" fill="none" xmlns="http://www.w3.org/2000/svg">
  <title>Twitter</title>
<path d="M44.8605 9.47028C44.8923 9.88588 44.8923 10.3016 44.8923 10.7172C44.8923 23.3937 34.5814 38 15.7361 38C9.93021 38 4.53683 36.4265 0 33.6954C0.824906 33.7844 1.61798 33.8141 2.47462 33.8141C7.26517 33.8141 11.6751 32.3 15.1967 29.7172C10.6916 29.6281 6.91624 26.8672 5.61545 23.0672C6.25002 23.1562 6.8845 23.2156 7.55081 23.2156C8.47083 23.2156 9.39095 23.0968 10.2475 22.8891C5.55207 21.9984 2.03038 18.139 2.03038 13.4781V13.3594C3.39454 14.0719 4.98098 14.5172 6.66233 14.5765C3.90216 12.8546 2.09386 9.91558 2.09386 6.59056C2.09386 4.80934 2.60138 3.17653 3.48976 1.75152C8.53421 7.57026 16.1168 11.3702 24.6192 11.7859C24.4606 11.0734 24.3654 10.3313 24.3654 9.58908C24.3654 4.30464 28.934 0 34.6129 0C37.5634 0 40.2284 1.15781 42.1003 3.02812C44.4162 2.61252 46.637 1.81092 48.6041 0.712505C47.8426 2.93912 46.2246 4.80943 44.099 5.99685C46.1612 5.78914 48.16 5.25465 50 4.51253C48.6043 6.41245 46.8593 8.10458 44.8605 9.47028Z" fill="#FF2737"/>
</svg>
